<?xml version="1.0" encoding="UTF-8"?>
<svg id="Layer_2" data-name="Layer 2" xmlns="http://www.w3.org/2000/svg" viewBox="0 0 108.15 59.13">
  <defs>
    <style>
      .cls-1 {
        fill: #1a1a1a;
      }
    </style>
  </defs>
  <g id="Layer_1-2" data-name="Layer 1">
    <g>
      <g>
        <path class="cls-1" d="M11.22,34.66c6.38,0,10.07,2.5,10.07,8.95,0,6-3.56,9.04-10.16,9.04-1.76,0-2.92,0-4.71-.06.03,2.37.1,4.46.22,6.12H0c.13-3.46.16-6.89.16-12.02s-.03-8.75-.16-12.02h11.22ZM15.13,43.51c0-2.57-1.47-3.53-4.94-3.53-.8,0-2.6.03-3.85.06v7.18c.83,0,2.18.03,3.66.03,3.82,0,5.13-.99,5.13-3.75Z"/>
        <path class="cls-1" d="M78.97,34.66c-.03,2.53-.1,6.89-.1,11.99s0,8.91.06,12.06h-6.57c-1.19-2.34-4.94-8.05-8.02-12.7-.96-1.57-1.76-3.17-2.4-4.78.16,2.08.26,4.04.29,5.9.03,5.9.03,9.94.13,11.57h-5.77c.03-3.17.1-6.89.1-12.02s0-8.95-.1-12.02h7.47c.83,1.7,4.97,7.73,7.79,12.38.77,1.28,1.51,2.79,2.05,4.26-.16-1.89-.29-3.78-.29-5.55,0-4.1-.13-8.98-.26-11.09h5.61Z"/>
        <path class="cls-1" d="M101.99,43.32c.03-.22.03-.45.03-.64,0-2.15-1.6-3.21-4.71-3.21-3.88,0-5.64,1.73-5.64,7.09s1.57,7.44,5.87,7.44c3.37,0,4.55-1.31,4.62-4.39-1.92.03-4.23.06-5.87.1.03-.42.03-1.25.03-1.67,0-1.03,0-1.86-.03-2.53,2.02.03,4.1.03,5.61.03,1.67,0,3.85.03,6.09-.03.55,8.4-1.06,13.63-10.71,13.63-8.08,0-11.93-5.23-11.96-12.67,0-7.5,3.98-12.22,11.99-12.22s10.84,4.14,10.84,7.86c0,.38,0,.8-.03,1.22-.71-.03-1.86-.06-2.98-.06-1.25,0-2.4,0-3.14.06Z"/>
        <path class="cls-1" d="M11.22.42c6.38,0,10.07,2.5,10.07,8.95,0,6-3.56,9.04-10.16,9.04-1.76,0-2.92,0-4.71-.06.03,2.37.1,4.46.22,6.12H0c.13-3.46.16-6.89.16-12.02S.13,3.69,0,.42h11.22ZM15.13,9.27c0-2.57-1.47-3.53-4.94-3.53-.8,0-2.6.03-3.85.06v7.18c.83,0,2.18.03,3.66.03,3.82,0,5.13-.99,5.13-3.75Z"/>
        <path class="cls-1" d="M78.97.42c-.03,2.53-.1,6.89-.1,11.99s0,8.91.06,12.06h-6.57c-1.19-2.34-4.94-8.05-8.02-12.7-.96-1.57-1.76-3.17-2.4-4.78.16,2.08.26,4.04.29,5.9.03,5.9.03,9.94.13,11.57h-5.77c.03-3.17.1-6.89.1-12.02s0-8.95-.1-12.02h7.47c.83,1.7,4.97,7.73,7.79,12.38.77,1.28,1.51,2.79,2.05,4.26-.16-1.89-.29-3.78-.29-5.55,0-4.1-.13-8.98-.26-11.09h5.61Z"/>
        <path class="cls-1" d="M101.99,9.07c.03-.22.03-.45.03-.64,0-2.15-1.6-3.21-4.71-3.21-3.88,0-5.64,1.73-5.64,7.09s1.57,7.44,5.87,7.44c3.37,0,4.55-1.31,4.62-4.39-1.92.03-4.23.06-5.87.1.03-.42.03-1.25.03-1.67,0-1.03,0-1.86-.03-2.53,2.02.03,4.1.03,5.61.03,1.67,0,3.85.03,6.09-.03.55,8.4-1.06,13.63-10.71,13.63-8.08,0-11.93-5.23-11.96-12.67,0-7.5,3.98-12.22,11.99-12.22s10.84,4.14,10.84,7.86c0,.38,0,.8-.03,1.22-.71-.03-1.86-.06-2.98-.06-1.25,0-2.4,0-3.14.06Z"/>
        <circle class="cls-1" cx="38.37" cy="46.69" r="7.15"/>
      </g>
      <path class="cls-1" d="M28.1,20.3c2.12-2.82,4.12-5.61,7.07-9.76s4.99-7,6.88-9.82l5.2,3.7c-2.09,2.76-4.08,5.56-7.05,9.74s-4.95,6.95-6.9,9.85l-5.2-3.7Z"/>
    </g>
  </g>
</svg>