<svg width="132" height="131" viewBox="0 0 132 131" fill="none" xmlns="http://www.w3.org/2000/svg">
<path d="M114.289 38.5L66.7891 10.8906L17.2891 38.5V91L66.7891 119L114.289 91V38.5Z" fill="white"/>
<path d="M115.203 87.335V43.6444C115.201 42.2144 114.825 40.8098 114.112 39.5704C113.399 38.331 112.373 37.3001 111.138 36.5801L72.2469 13.9468C70.3731 12.856 68.2437 12.2812 66.0756 12.2812C63.9074 12.2812 61.778 12.856 59.9042 13.9468L21.0187 36.5801C19.7832 37.3001 18.7577 38.331 18.0444 39.5704C17.3311 40.8098 16.9549 42.2144 16.9531 43.6444V87.335C16.954 88.7658 17.3298 90.1715 18.0431 91.4119C18.7565 92.6522 19.7824 93.684 21.0187 94.4044L59.9094 117.038C61.7836 118.127 63.9128 118.701 66.0807 118.701C68.2485 118.701 70.3777 118.127 72.252 117.038L111.143 94.4044C112.378 93.6834 113.403 92.6513 114.115 91.411C114.828 90.1707 115.203 88.7653 115.203 87.335Z" stroke="black" stroke-width="2" stroke-linecap="round" stroke-linejoin="round"/>
<path d="M18.2344 39.4023L66.0801 67.5469M66.0801 67.5469L113.926 39.4023M66.0801 67.5469V118.719" stroke="black" stroke-width="2" stroke-linecap="round" stroke-linejoin="round"/>
<path d="M79.6177 81.0124L78 70.5664L79.4379 69.7612L80.4494 77.4492L81.4481 68.6354L82.8999 67.8223L84.3023 75.2915L84.9102 66.6965L86.348 65.8913L85.2854 77.8384L83.5684 78.8L82.2553 71.5078L81.3348 80.0508L79.6177 81.0124Z" fill="black"/>
<path d="M80.2775 100.825L80 89.6289L83.1968 87.8386C83.96 87.4112 84.5919 87.2087 85.0925 87.231C85.6025 87.2482 85.9848 87.4449 86.2394 87.8212C86.5032 88.1817 86.6429 88.6818 86.6588 89.3216C86.6768 90.0467 86.5299 90.7831 86.2182 91.5307C85.9155 92.2624 85.4369 92.9412 84.7825 93.5672L86.9504 97.0885L85.2333 98.0501L83.2529 94.6671L81.6475 95.5661L81.7573 99.9968L80.2775 100.825ZM81.6094 94.0306L83.2427 93.1159C83.9128 92.7406 84.3972 92.2964 84.6958 91.7832C85.0038 91.2647 85.1509 90.7283 85.1372 90.1738C85.1231 89.6086 84.9585 89.2468 84.6432 89.0882C84.3276 88.9189 83.8255 89.0272 83.1368 89.4129L81.5174 90.3197L81.6094 94.0306Z" fill="black"/>
<path d="M99.126 70.6219C98.335 71.0649 97.6451 71.2134 97.0565 71.0674C96.4678 70.9213 96.0093 70.5024 95.6807 69.8107C95.3522 69.1189 95.1731 68.1759 95.1435 66.9816C95.1139 65.7873 95.242 64.6723 95.5277 63.6366C95.8134 62.6009 96.2389 61.6868 96.8043 60.8945C97.3697 60.1022 98.0479 59.4845 98.839 59.0415C99.6394 58.5932 100.329 58.4448 100.909 58.596C101.497 58.7421 101.956 59.161 102.284 59.8527C102.613 60.5444 102.792 61.4875 102.821 62.6818C102.851 63.8761 102.723 64.9911 102.437 66.0268C102.152 67.0625 101.726 67.9766 101.161 68.7689C100.605 69.556 99.9264 70.1737 99.126 70.6219ZM99.0864 69.0224C99.7844 68.6315 100.339 67.959 100.749 67.0048C101.159 66.0399 101.347 64.8803 101.314 63.5261C101.28 62.1718 101.041 61.2574 100.595 60.7827C100.149 60.2973 99.5766 60.2501 98.8786 60.641C98.1713 61.0371 97.6126 61.7176 97.2025 62.6824C96.8014 63.6314 96.6176 64.783 96.6512 66.1373C96.6848 67.4915 96.9199 68.414 97.3567 68.9045C97.8025 69.3792 98.3791 69.4185 99.0864 69.0224Z" fill="black"/>
<path d="M96.2775 89.927L96 78.7305L97.4798 77.9018L97.6066 83.0202L100.942 75.9629L102.771 74.9388L99.0831 82.6312L99.0855 82.7271L103.132 86.0884L101.261 87.136L97.6328 84.0759L97.7573 89.0983L96.2775 89.927Z" fill="black"/>
<path d="M52.6843 41.7564L43 35.2051L44.3721 34.2923L51.2567 39.1607L46.2905 33.0162L47.6759 32.0946L54.9335 36.7148L49.5943 30.8185L50.9664 29.9058L58.0929 38.1585L56.4543 39.2485L49.4448 34.7232L54.3229 40.6664L52.6843 41.7564Z" fill="black"/>
<path d="M68.4162 54.4444L59.75 47.3496L62.7257 45.2118C63.4361 44.7015 64.1364 44.376 64.8266 44.2354C65.5255 44.0885 66.1856 44.0963 66.807 44.2588C67.4289 44.4084 67.9874 44.6859 68.4826 45.0913C69.0438 45.5508 69.3916 46.0685 69.5258 46.6444C69.6605 47.2074 69.5193 47.7909 69.1023 48.3949L74.6275 49.9822L73.0292 51.1304L67.8586 49.5738L66.3643 50.6474L69.7936 53.4549L68.4162 54.4444ZM65.1758 49.6744L66.6961 48.5821C67.3198 48.134 67.6426 47.6992 67.6643 47.2776C67.6948 46.8498 67.4954 46.4602 67.0662 46.1088C66.6288 45.7507 66.1392 45.5696 65.5974 45.5655C65.0475 45.5547 64.4519 45.7795 63.8109 46.2401L62.3035 47.3229L65.1758 49.6744Z" fill="black"/>
<path d="M71.1071 29.9825C70.3522 30.4846 69.5233 30.7638 68.6204 30.8199C67.7176 30.876 66.7954 30.716 65.8539 30.34C64.9124 29.9639 63.9934 29.3811 63.0968 28.5916C62.2002 27.802 61.5743 27.0243 61.2189 26.2583C60.8636 25.4923 60.7851 24.7711 60.9835 24.0946C61.1819 23.4182 61.6586 22.8289 62.4135 22.3267C63.1773 21.8186 64.0062 21.5395 64.9001 21.4893C65.803 21.4332 66.7252 21.5932 67.6667 21.9692C68.6082 22.3453 69.5272 22.9281 70.4238 23.7176C71.3203 24.5072 71.9463 25.2849 72.3016 26.0509C72.657 26.8169 72.7354 27.5381 72.537 28.2145C72.3475 28.8851 71.8708 29.4744 71.1071 29.9825ZM69.9063 28.9251C70.5724 28.482 70.8415 27.8884 70.7137 27.1443C70.5779 26.3932 70.0017 25.57 68.985 24.6747C67.9684 23.7794 66.9876 23.2315 66.0427 23.0309C65.0898 22.8233 64.2804 22.941 63.6143 23.3841C62.9393 23.8331 62.6697 24.4332 62.8055 25.1843C62.9422 25.9225 63.5189 26.7392 64.5355 27.6345C65.5522 28.5298 66.5325 29.0842 67.4765 29.2977C68.4214 29.4983 69.2313 29.374 69.9063 28.9251Z" fill="black"/>
<path d="M83.477 42.5453L74.75 35.5254L76.1188 34.524L80.1083 37.7331L79.3214 32.1812L81.013 30.9437L81.8009 37.012L81.8757 37.0721L89.8175 37.9069L88.0871 39.1727L80.9312 38.395L84.8459 41.5439L83.477 42.5453Z" fill="black"/>
<path d="M29.2533 69.075L27.4805 57.082L28.8856 57.9431L30.0136 66.565L30.8501 59.1469L32.2689 60.0164L33.7789 68.8724L34.2334 61.2202L35.6385 62.0813L34.792 72.4692L33.114 71.4409L31.6951 62.8589L30.9313 70.1033L29.2533 69.075Z" fill="black"/>
<path d="M29.4631 88.081L29 76.8906L32.1241 78.8051C32.8698 79.2621 33.4899 79.7875 33.9843 80.3813C34.4878 80.9806 34.8683 81.6086 35.126 82.265C35.3923 82.9164 35.5386 83.5618 35.5651 84.2013C35.5951 84.926 35.4626 85.4732 35.1677 85.843C34.8814 86.2077 34.4207 86.3201 33.7855 86.1802L35.9841 92.0771L34.3061 91.0488L32.2948 85.5004L30.726 84.539L30.9092 88.9672L29.4631 88.081ZM30.6624 83.0043L32.2586 83.9824C32.9134 84.3837 33.3838 84.5058 33.6698 84.3487C33.9649 84.1971 34.101 83.8442 34.0781 83.29C34.0547 82.7252 33.8861 82.1856 33.5723 81.6713C33.2581 81.1464 32.7645 80.6777 32.0914 80.2652L30.5089 79.2955L30.6624 83.0043Z" fill="black"/>
<path d="M49.2306 78.7637C48.4576 78.29 47.7794 77.6459 47.1961 76.8314C46.6128 76.0169 46.1533 75.0861 45.8174 74.0389C45.4815 72.9917 45.2889 71.8713 45.2395 70.6777C45.1901 69.484 45.2976 68.5475 45.562 67.8682C45.8264 67.1888 46.2308 66.7875 46.7753 66.6641C47.3198 66.5407 47.9786 66.7159 48.7516 67.1896C49.5338 67.6689 50.2119 68.313 50.7861 69.1219C51.3694 69.9364 51.829 70.8672 52.1649 71.9144C52.5007 72.9616 52.6933 74.082 52.7427 75.2757C52.7922 76.4693 52.6847 77.4058 52.4203 78.0851C52.1558 78.7645 51.7514 79.1658 51.2069 79.2892C50.6716 79.4182 50.0128 79.243 49.2306 78.7637ZM49.1645 77.1651C49.8466 77.5831 50.3821 77.5632 50.7709 77.1056C51.1592 76.6372 51.3254 75.7263 51.2694 74.3728C51.2134 73.0193 50.9614 71.8573 50.5135 70.8869C50.0651 69.9058 49.4999 69.2062 48.8178 68.7882C48.1266 68.3647 47.5868 68.3871 47.1984 68.8554C46.8187 69.3187 46.6569 70.227 46.7129 71.5805C46.7689 72.9341 47.0165 74.0986 47.4558 75.0741C47.9037 76.0445 48.4733 76.7415 49.1645 77.1651Z" fill="black"/>
<path d="M46.4631 96.081L46 84.8906L47.4461 85.7768L47.6578 90.8924L50.8294 87.8501L52.6165 88.9452L49.1081 92.2018L49.1121 92.2977L53.1615 100.186L51.3334 99.0656L47.7015 91.9475L47.9092 96.9672L46.4631 96.081Z" fill="black"/>
</svg>
